<svg width="43" height="43" viewBox="0 0 43 43" fill="none" xmlns="http://www.w3.org/2000/svg">
<circle cx="21.5" cy="21.5" r="20" fill="#854ABE" stroke="white" stroke-width="3"/>
<path d="M27.0801 21.856L32.1861 27.008C33.2901 28.112 33.8421 29.0627 33.8421 29.86C33.8421 30.6267 33.2901 31.562 32.1861 32.666C31.0821 33.7393 30.1468 34.276 29.3801 34.276C28.6135 34.276 27.6781 33.724 26.5741 32.62L21.5141 27.514L16.4081 32.62C15.3041 33.724 14.3688 34.276 13.6021 34.276C12.8661 34.276 11.9308 33.7393 10.7961 32.666C9.69214 31.562 9.14014 30.6267 9.14014 29.86C9.14014 29.0627 9.69214 28.112 10.7961 27.008L15.9021 21.856L10.7961 16.704C9.69214 15.6 9.14014 14.6647 9.14014 13.898C9.14014 13.1007 9.69214 12.15 10.7961 11.046C11.9308 9.94201 12.8661 9.39001 13.6021 9.39001C14.3688 9.39001 15.3041 9.94201 16.4081 11.046L21.5141 16.198L26.5741 11.046C27.6781 9.94201 28.6135 9.39001 29.3801 9.39001C30.1468 9.39001 31.0821 9.94201 32.1861 11.046C33.2901 12.15 33.8421 13.1007 33.8421 13.898C33.8421 14.6647 33.2901 15.6 32.1861 16.704L27.0801 21.856Z" fill="white"/>
</svg>
