<svg width="88" height="237" viewBox="0 0 88 237" fill="none" xmlns="http://www.w3.org/2000/svg">
<g clip-path="url(#clip0_774_2)">
<path d="M58.87 1.90088C61.7215 3.53256 62.5611 4.08702 63.0522 4.64148C63.2898 4.91078 64.6047 6.84346 65.9512 8.93455C67.2977 11.0415 69.0562 13.7504 69.8641 14.9702C70.6562 16.19 73.5393 20.7524 76.2482 25.1088C78.973 29.4652 81.5869 33.6316 82.0463 34.3603C83.1393 36.1029 84.1374 37.7029 85.4047 39.8098L86.4502 41.5365L86.4661 43.691C86.4661 44.8791 86.5453 46.4633 86.6245 47.2078C86.7037 47.9524 86.8146 49.188 86.8621 49.9801L86.9572 51.4058L86.1334 53.0534C84.977 55.3979 85.1354 55.2553 81.1433 58.1385C80.0027 58.9464 77.5789 60.7365 75.7572 62.0989C71.9869 64.9187 67.4403 68.0395 66.2205 68.6573C64.8898 69.3227 64.668 69.2593 61.975 67.485C60.2007 66.3286 59.5987 65.9801 58.8067 65.7108C58.0146 65.4573 57.9987 65.4256 56.272 62.685C55.3057 61.1643 54.1017 59.2157 53.5789 58.3603C52.8185 57.1088 48.9215 51.3108 48.6364 51.0098C48.5413 50.8989 46.9888 51.786 46.4502 52.2771C46.1809 52.4989 45.3413 53.1959 44.5809 53.7979C43.8047 54.3999 42.8383 55.1603 42.4423 55.493C42.0304 55.8098 40.668 56.7761 39.4007 57.6157C38.1334 58.4553 36.676 59.5009 36.1532 59.9603C35.6304 60.4039 34.7433 61.1167 34.173 61.5445C33.6027 61.9722 32.7789 62.6375 32.3512 63.0494C31.9076 63.4454 30.8146 64.3484 29.8958 65.0296C28.9769 65.7266 26.9334 67.2949 25.3651 68.5147C23.7809 69.7346 21.6581 71.3346 20.6443 72.0791C19.6146 72.8237 17.8403 74.1227 16.6997 74.9781C12.7552 77.9247 11.9631 78.3524 11.2027 77.9405C10.6958 77.6712 9.46011 76.5148 9.46011 76.3088C9.46011 76.2138 9.28585 75.9603 9.07991 75.7385C8.47793 75.089 8.00269 73.5841 7.92348 72.0474C7.84427 70.8118 7.87595 70.6217 8.19279 70.0989C8.41457 69.7504 9.00071 69.2276 9.68189 68.7999C10.2997 68.4039 11.1235 67.7702 11.5195 67.4058C11.9156 67.0256 12.5017 66.5029 12.8185 66.2652C13.1354 66.0276 13.8165 65.4573 14.3393 65.0296C15.9868 63.6514 16.8423 63.0019 23.4799 58.0593C29.8799 53.3068 30.5928 52.7524 32.2086 51.3108C32.6522 50.9147 33.4284 50.2652 33.9512 49.885C34.4581 49.5048 35.6304 48.5544 36.5492 47.794C37.4522 47.0177 38.9888 45.8771 39.9552 45.2276C40.9057 44.594 42.0463 43.7227 42.4581 43.2791L43.2344 42.487L41.8403 39.9048C41.0799 38.4791 39.4482 35.6593 38.2284 33.6633C37.0245 31.6514 35.8364 29.7029 35.6146 29.3068C35.2344 28.6256 35.2027 28.4514 34.9967 23.8098L34.775 19.0256L36.3433 17.5365C38.0225 15.9365 38.8621 15.1761 40.5888 13.7029C41.1908 13.1801 42.6482 11.8969 43.8364 10.8514C45.0086 9.80583 47.1314 7.96821 48.5413 6.76425C49.9512 5.54445 51.1393 4.48306 51.171 4.37217C51.2185 4.27712 51.5512 3.97613 51.9314 3.72266C52.3116 3.4692 52.977 2.96227 53.4205 2.59791C54.767 1.50484 55.7175 0.918702 56.3195 0.839494C56.8265 0.776128 57.175 0.934544 58.87 1.90088ZM50.7116 5.89296C50.4581 6.0989 48.8898 7.46128 47.2265 8.95039C45.5631 10.4237 43.2502 12.4672 42.0779 13.4652C39.2581 15.9048 36.7868 18.1385 36.3908 18.6454C36.1849 18.9147 36.074 19.2949 36.074 19.7227C36.074 20.4831 36.8344 23.0969 37.2779 23.8573L37.5631 24.3642L40.9373 21.5286C42.7908 19.9603 44.8819 18.2177 45.5789 17.6316C46.8621 16.5702 50.9809 13.4811 53.5789 11.6435C54.371 11.089 55.1314 10.5029 55.2898 10.3444C55.5433 10.0593 55.5433 10.0118 55.1948 9.56821C55.0047 9.2989 54.5928 8.82365 54.276 8.49098C53.9433 8.17415 53.4839 7.60385 53.2463 7.2395C52.5492 6.19395 51.8839 5.54445 51.5037 5.54445C51.3136 5.54445 50.9651 5.70286 50.7116 5.89296ZM58.2522 9.2989C57.9512 9.50484 57.6027 9.66326 57.4601 9.66326C56.8581 9.6791 56.8106 9.91672 57.2859 10.5662C57.7928 11.2633 59.7888 14.8118 60.6284 16.4751C61.3413 17.9009 64.2403 22.8435 65.4918 24.7603C66.0621 25.6474 67.1552 27.2949 67.8997 28.4197C68.6601 29.5603 69.5472 30.9543 69.8958 31.5246C70.2284 32.0949 70.8779 33.1246 71.3373 33.8217C71.7809 34.5187 72.4146 35.6118 72.7314 36.2296C73.0482 36.8633 73.8562 38.2256 74.5373 39.2712C75.2027 40.3167 76.1373 41.7583 76.5968 42.487C77.6423 44.1345 77.7849 44.293 78.8146 45.1167C79.7809 45.8771 80.177 45.9246 81.4918 45.5128C82.2839 45.2593 82.3473 45.2118 82.2839 44.8316C82.0938 43.9286 78.7671 38.3365 76.9294 35.8652C76.3433 35.0732 74.9968 32.9662 73.9195 31.192C72.8423 29.4177 71.3849 26.9939 70.6878 25.8217C69.975 24.6494 68.5651 22.3999 67.5671 20.8316C65.4601 17.5524 65.0799 16.8712 61.7849 10.8989L60.2324 8.11078L59.5195 8.52266C59.1235 8.74445 58.5532 9.09296 58.2522 9.2989ZM70.6245 20.1187C70.4661 20.1979 70.1651 20.7048 69.975 21.2276C69.6423 22.0989 69.6265 22.289 69.8007 23.0019C69.8958 23.4771 70.2601 24.2217 70.672 24.7761C71.0364 25.3147 71.5591 26.091 71.7968 26.5345C72.5255 27.8019 73.8562 29.5286 74.7433 30.3207C75.6621 31.1444 76.2007 31.2395 77.1829 30.7801C77.9908 30.3999 78.07 29.7662 77.468 28.5623C76.4859 26.6296 74.6482 23.3345 74.1096 22.5741C72.7473 20.6256 72.4463 20.2454 72.1294 20.1187C71.67 19.9286 70.9572 19.9286 70.6245 20.1187ZM58.8859 31.6831C56.9215 32.3326 55.7334 33.2197 54.5928 34.8831C53.9908 35.7702 53.0245 37.9088 53.0245 38.3841C53.0245 38.6058 53.9433 39.0494 54.0859 38.9068C54.1175 38.8751 54.2601 38.4157 54.371 37.893C54.9096 35.5801 56.3195 33.8217 58.4106 32.8237C59.4562 32.3326 59.7888 32.2534 61.1037 32.19C62.1968 32.1425 62.8463 32.19 63.5116 32.3801C64.7314 32.7444 64.8423 32.9029 64.6205 34.0751C64.3829 35.3266 63.8601 36.4514 62.9096 37.7029C62.3869 38.3841 62.1492 38.8593 62.1809 39.0811C62.2601 39.588 62.4027 39.5405 63.1156 38.7642C64.6047 37.1484 65.3492 35.5009 65.5076 33.5524C65.6027 32.3009 65.4918 32.1108 64.4304 31.6514C63.0047 31.0177 60.8185 31.0336 58.8859 31.6831ZM49.1116 31.8256C47.8601 32.3801 47.7175 32.6019 47.9393 33.6949C48.4463 36.2296 50.7116 39.0177 53.2621 40.2534C55.8601 41.5048 59.5195 41.7266 59.5195 40.6494C59.5195 40.285 59.4878 40.285 57.967 40.3642C57.1274 40.3959 56.0027 40.3484 55.4799 40.2534C54.3235 40.0474 52.5492 39.192 51.6304 38.4157C50.4581 37.4019 48.8423 34.6771 48.7156 33.5207C48.668 33.0771 48.7156 33.0296 49.6977 32.6811C50.9651 32.2375 52.771 32.2058 54.2284 32.586C55.1631 32.8395 55.2581 32.8395 55.4958 32.6019C55.7492 32.3642 55.7175 32.3167 55.1472 32.0633C53.8641 31.5088 53.1195 31.3662 51.5195 31.4138C50.2839 31.4613 49.7453 31.5405 49.1116 31.8256ZM59.7096 33.3623C59.4403 33.4256 59.2027 33.5365 59.2027 33.6157C59.2027 33.7108 59.4878 34.1068 59.8522 34.5029C60.2166 34.9147 60.7393 35.7227 61.0403 36.3088C61.3255 36.8791 61.6423 37.4019 61.7215 37.4494C61.9274 37.5761 62.6245 36.7207 63.1156 35.7385C63.369 35.2316 63.5274 34.6454 63.5433 34.1543C63.5591 33.394 63.5433 33.3464 63.0839 33.2355C62.577 33.1246 60.5651 33.188 59.7096 33.3623ZM50.5215 33.5048C50.0621 33.6474 49.6977 33.8058 49.6977 33.885C49.6977 33.9484 49.8403 34.4078 49.9987 34.8831C50.3472 35.8969 51.2027 37.1484 51.8997 37.6712L52.3908 38.0197L52.4859 37.592C52.6443 36.8157 53.0245 35.9128 53.6265 34.8514C53.9433 34.2811 54.2126 33.7583 54.2126 33.6633C54.2126 33.2514 51.7571 33.1405 50.5215 33.5048ZM57.872 34.3603C57.571 34.693 57.6819 35.0732 58.1888 35.5009C58.7433 35.9444 59.9948 38.0831 60.3116 39.0811C60.771 40.5543 60.7393 42.4395 60.2482 43.786C59.8522 44.9108 58.9651 46.1781 58.2047 46.7484C57.7294 47.0969 57.7294 47.0969 57.175 46.7959C56.0819 46.2098 54.5928 44.0078 54.1334 42.2969C54.0067 41.8375 53.8799 41.6633 53.6581 41.6633C53.2463 41.6633 53.2621 41.9642 53.7057 43.2474C54.2284 44.7841 55.3849 46.3999 56.6205 47.3504C57.1908 47.794 57.7453 48.1583 57.8562 48.1583C58.4581 48.1583 60.1215 46.4633 60.7552 45.2118C61.9433 42.8672 61.7849 39.5246 60.3591 36.6732C59.8839 35.7227 58.5373 34.0593 58.2364 34.0593C58.1888 34.0593 58.0146 34.2019 57.872 34.3603ZM56.1611 35.8336C55.4482 36.7682 55.0364 37.7345 55.0205 38.5583C55.0047 39.3345 55.0205 39.3504 55.5591 39.4771C56.177 39.6197 58.4423 39.4771 59.0126 39.2712C59.4403 39.1128 59.4086 38.9702 58.7591 37.4969C58.3631 36.594 57.1908 35.3266 56.7472 35.3266C56.6364 35.3266 56.367 35.5642 56.1611 35.8336ZM55.1789 42.3444C55.4641 43.2633 56.3987 45.0058 56.9057 45.592L57.5076 46.2732L57.967 45.8296C58.5057 45.3227 59.4562 43.4217 59.5987 42.6138L59.6938 42.0593L57.3968 42.0435C55.2106 42.0435 55.0839 42.0593 55.1789 42.3444ZM43.3136 46.3682C43.7255 47.0336 44.1849 47.7623 44.3116 47.9999C45.0245 49.2197 46.6245 51.0098 47.0364 51.0098C47.1948 51.0098 47.3215 50.9623 47.3215 50.9147C47.3215 50.8672 46.7987 50.2019 46.1651 49.4573C45.5156 48.6969 44.6126 47.4771 44.1532 46.7326C43.6938 45.988 43.171 45.1642 42.9809 44.9108C42.6641 44.4514 42.6482 44.4514 42.6007 44.7999C42.569 45.0217 42.8383 45.6078 43.3136 46.3682ZM39.5591 48.0157C39.5591 48.7128 40.6839 50.7563 41.7769 52.0395C43.076 53.5761 43.2977 53.7821 43.4245 53.5603C43.472 53.4811 42.9492 52.7207 42.2522 51.8494C40.9215 50.2177 40.3512 49.2989 40.0344 48.2058C39.8284 47.5246 39.5591 47.4296 39.5591 48.0157ZM35.9472 50.5821C35.9948 50.9623 36.1215 51.4534 36.2482 51.6751C36.7552 52.6256 39.1789 55.9048 39.4324 55.9682C39.9868 56.1266 39.8601 55.8415 39.0205 54.986C38.0542 54.0039 36.8502 52.0078 36.4383 50.7246C36.1215 49.7266 35.8522 49.6474 35.9472 50.5821ZM32.4304 53.4177C32.4304 54.2098 33.2859 56.0474 34.0779 56.9504C34.3789 57.2989 34.7591 57.7425 34.9175 57.9326C35.076 58.1227 35.4086 58.3286 35.6779 58.392L36.1532 58.5029L35.7413 58.0435C34.8067 56.9979 34.0304 55.7781 33.6185 54.6534C33.0324 53.0692 32.7631 52.5623 32.5888 52.6732C32.4938 52.7365 32.4304 53.0692 32.4304 53.4177ZM28.7868 56.0791C28.7868 56.5068 29.7215 58.2969 30.4502 59.2474C31.3373 60.4039 32.5413 61.4177 32.7631 61.1959C32.8581 61.1009 32.5255 60.6098 31.7967 59.786C31.0839 58.9781 30.4027 57.9801 29.8799 56.9662C29.2938 55.8415 29.0245 55.4613 28.9294 55.6197C28.8502 55.7464 28.7868 55.9524 28.7868 56.0791ZM25.3017 58.392C25.3017 58.5029 25.6344 59.3425 26.0304 60.2296C27.1235 62.6692 28.8502 64.4751 29.3413 63.6831C29.4047 63.588 28.9294 62.9544 28.2799 62.2732C27.4245 61.3702 26.9334 60.6415 26.3631 59.5009C25.6819 58.1385 25.3017 57.7425 25.3017 58.392ZM21.8165 61.1009C21.8165 61.2118 22.0542 61.7979 22.3552 62.3841C23.0047 63.6672 25.4918 66.2177 26.0938 66.2177H26.4581L26.0779 65.79C25.872 65.5524 25.2225 64.8237 24.6205 64.19C23.9076 63.4296 23.3373 62.59 22.8779 61.687C22.2918 60.5147 22.1967 60.3722 22.0225 60.6256C21.9116 60.7682 21.8165 60.99 21.8165 61.1009ZM18.5849 65.2514C18.8383 65.7425 19.6146 66.7247 20.3116 67.4375C21.5631 68.7365 21.5789 68.7524 22.371 68.7524L23.1631 68.7365L22.1334 67.786C21.5631 67.2633 20.9453 66.7247 20.7393 66.5821C20.5492 66.4395 19.9314 65.6474 19.3928 64.8237L18.4106 63.3029L18.268 63.8256C18.1413 64.285 18.1888 64.491 18.5849 65.2514ZM14.8304 66.5029C15.7334 68.1346 18.8383 71.5722 19.2661 71.4138C19.4086 71.3662 18.87 70.6692 16.0977 67.3583C15.4799 66.6454 14.9255 66.091 14.8463 66.1385C14.7512 66.2019 14.7354 66.3445 14.8304 66.5029Z" fill="#00BBFF"/>
</g>
<path d="M41.5 234C30.5001 209.5 24.5 196.5 24.5 172M24.5 172L34 131M24.5 172C4.00004 195 5.50004 200 3.00004 230M34 131C21.5 122.5 19.5 118.5 19.5 108C22.5 97.5 33.5 89.5 49 96C67.5 107 53 137 34 131ZM34 131L65.5591 164.5M29.5 94.5L26.5 62" stroke="#FF8C00" stroke-width="6" stroke-linecap="round"/>
<defs>
<clipPath id="clip0_774_2">
<rect width="80" height="79.2079" fill="white" transform="matrix(-1 0 0 1 87.5591 0)"/>
</clipPath>
</defs>
</svg>
